<?xml version="1.0" standalone="no"?><!DOCTYPE svg PUBLIC "-//W3C//DTD SVG 1.1//EN" "http://www.w3.org/Graphics/SVG/1.1/DTD/svg11.dtd"><svg t="1538920175633" class="icon" style="" viewBox="0 0 1024 1024" version="1.1" xmlns="http://www.w3.org/2000/svg" p-id="1776" xmlns:xlink="http://www.w3.org/1999/xlink" width="200" height="200"><defs><style type="text/css"></style></defs><path d="M921.6 170.666667C921.6 211.121186 912.950917 249.468143 895.652489 285.708629 878.35406 321.94915 855.701699 357.346338 827.694722 391.901218 799.687745 426.456132 768.180367 460.378419 733.171644 493.669137 698.162924 526.959821 662.536933 560.882142 626.29261 595.437022 590.048287 629.991936 555.040089 665.8105 521.266968 702.893841 487.493847 739.977148 458.251708 779.166857 433.539669 820.464196L433.539669 821.728393C433.539669 822.571213 433.333736 823.203294 432.92187 823.624704 432.510003 824.04608 432.304073 825.099571 432.304073 826.785178 432.304073 833.527603 440.541297 837.741568 457.015989 839.427174 473.490681 841.112781 493.671878 841.955567 517.56018 841.955567 534.034872 841.955567 551.744901 841.112781 570.690799 839.427174 589.636697 837.741568 609.200101 834.581094 629.381598 829.945685 649.563098 825.310276 669.744292 818.778658 689.925792 810.350626 710.10729 801.922594 729.258834 791.387716 747.380995 778.745685 749.028465 777.902865 751.08777 776.638703 753.558975 774.953097 758.501383 771.581884 761.79627 769.896311 763.443739 769.896311 772.504822 769.896311 778.064947 771.160474 780.124283 773.6889 782.183619 776.217293 783.213274 780.852634 783.213274 787.595059 779.0946 812.036335 772.092962 835.213073 762.208143 857.125922 752.323328 879.038805 742.0268 898.422955 731.318252 915.279019 718.962231 935.506261 705.782675 954.047659 691.779185 970.903689 679.423167 982.702933 669.126639 990.288043 660.889293 993.659255 655.946882 996.187682 651.416412 997.451844 647.297737 997.451844 602.816068 1007.565483 555.863897 1014.518511 506.43982 1018.3111 457.01574 1022.103723 408.827986 1024 361.875115 1024 327.278257 1024 294.741228 1023.367919 264.263045 1022.103689 233.784866 1020.839492 207.013891 1019.364625 183.949322 1017.679019 156.766078 1015.150592 132.054409 1012.622234 109.813576 1010.093841 104.871168 1009.251021 102.4 1002.930108 102.4 991.130863 106.518675 974.274799 110.637285 960.790187 114.755959 950.676548 118.874631 940.56291 122.993241 932.556425 127.111916 926.656785 131.23059 919.914359 135.76106 915.279019 140.703468 912.750626 176.947794 885.780924 217.104254 852.490718 261.174057 812.879019 305.24386 773.267285 349.313004 730.706398 393.382806 685.195059 437.452609 639.683721 480.286167 592.698197 521.884768 544.237022 563.483365 495.775881 600.139008 448.790357 631.85279 403.279019 663.566575 357.76768 689.101964 315.206793 708.459728 275.595059 727.817492 235.983326 737.496228 202.271744 737.496228 174.459255 737.496228 159.288798 735.025063 147.279053 730.082656 138.429645 725.140248 129.580203 718.96233 122.837879 711.548716 118.20247 704.135107 113.567061 696.515676 110.617293 688.690196 109.353097 680.864717 108.088866 674.480869 107.456785 669.538461 107.456785 634.117871 110.827998 603.022356 122.837743 576.250979 143.48643 549.479605 164.135083 527.033173 186.25833 508.911012 209.856785 487.493908 237.669274 469.37202 268.431121 454.544797 302.143215 448.778653 316.470852 439.92364 325.320158 427.979486 328.691371 416.035335 332.062583 406.768459 333.748156 400.178582 333.748156 390.293767 333.748156 383.703989 331.219763 380.40905 326.162978 377.114112 321.106159 375.466667 315.206622 375.466667 308.464196 375.466667 301.721771 375.878526 297.08643 376.702263 294.558037 383.29214 257.474697 392.353085 223.97382 403.88537 194.054315 415.417655 164.134844 426.949765 138.219042 438.48205 116.306159 452.48554 90.179277 466.900681 67.002573 481.727904 46.775296L489.141477 39.190118C490.788946 37.504512 493.054184 35.608235 495.937256 33.501218 498.820325 31.394236 501.085563 29.919334 502.733032 29.076548 515.912786 23.176909 530.739787 18.120192 547.214479 13.906159 561.217969 9.69216 578.927998 6.321015 600.345098 3.792589 621.762198 1.264196 645.650145 0 672.009653 0 695.897958 0 722.463 1.474867 751.70558 4.424704 780.948159 7.374507 808.130997 14.538206 833.254902 25.916041 858.37881 37.293875 879.383726 54.360371 896.270288 77.116041 913.156847 99.87171 921.6 131.054933 921.6 170.666667L921.6 170.666667Z" p-id="1777" fill="#1296db"></path></svg>