<?xml version="1.0" standalone="no"?><!DOCTYPE svg PUBLIC "-//W3C//DTD SVG 1.1//EN" "http://www.w3.org/Graphics/SVG/1.1/DTD/svg11.dtd"><svg t="1538920072528" class="icon" style="" viewBox="0 0 1024 1024" version="1.1" xmlns="http://www.w3.org/2000/svg" p-id="8826" xmlns:xlink="http://www.w3.org/1999/xlink" width="200" height="200"><defs><style type="text/css"></style></defs><path d="M853.333333 6.360235C853.333333 8.904363 852.846066 10.600414 851.871519 11.448457 822.635114 58.090496 793.886413 107.699951 765.624556 160.278255 741.260882 205.224243 715.679409 256.105711 688.87937 312.924228 662.079334 369.742711 637.95966 427.408418 616.519629 485.922987 598.977785 532.565026 581.436204 579.630421 563.894361 627.120503 546.352517 674.610586 530.029104 720.403934 514.923626 764.501879 499.818151 808.599791 487.14923 849.516988 476.916487 887.254665 466.683747 924.992307 460.59292 957.429248 458.643825 984.566443 458.643825 988.806656 456.207497 993.046767 451.334762 997.286946 449.385667 998.983031 447.436602 999.83104 445.48751 999.83104 407.48018 1009.159475 371.422488 1015.519642 337.313348 1018.911812 303.204209 1022.303949 273.480974 1024 248.142756 1024L218.906494 1024C210.135572 1024 202.826581 1023.575996 196.979299 1022.727953 190.157472 1021.87991 183.823012 1021.031902 177.975733 1020.183859 173.102998 1020.183859 170.666667 1018.063804 170.666667 1013.82359L170.666667 1008.735403C170.666667 1007.88736 171.153934 1007.463356 172.128481 1007.463356 197.466699 972.693811 219.88094 936.016759 239.371878 897.43104 258.862814 858.845355 277.866192 821.744265 296.382583 786.126711 327.568084 724.219972 354.36772 667.190306 376.782298 615.036041 399.196877 562.881741 417.712988 517.300395 432.331192 478.290671 449.873036 432.496674 464.003755 391.367475 474.723768 354.901879L474.723768 349.813658C474.723768 345.573478 473.261971 343.029419 470.338331 342.181376 467.414688 341.333333 464.978357 340.909329 463.029265 340.909329 431.843765 337.517158 406.262292 333.277047 386.284083 328.188826 366.305871 323.100604 350.956988 317.588446 340.236974 311.652181 327.567865 304.867874 318.309809 297.659665 312.462527 290.027315 309.538888 285.787136 308.077087 282.395034 308.077087 279.85094 308.077087 274.762718 312.94975 270.522573 322.695219 267.130436 372.397107 251.865771 419.661923 233.209207 464.491076 211.160235 502.498406 191.65539 541.236064 167.062665 580.705212 137.381376 620.17436 107.700053 650.628492 72.507051 672.068523 31.801242 672.068523 30.953199 672.55579 29.681152 673.530334 27.985101 675.479429 24.59293 679.377558 22.04887 685.224841 20.352785 695.944854 16.960649 708.126508 13.568546 721.770165 10.17641 733.464726 7.632282 747.351811 5.300224 763.431834 3.180134 779.511859 1.060045 797.29707 0 816.788009 0 841.151679 0 853.333333 2.120055 853.333333 6.360235L853.333333 6.360235Z" p-id="8827" fill="#d81e06"></path></svg>