<?xml version="1.0" standalone="no"?><!DOCTYPE svg PUBLIC "-//W3C//DTD SVG 1.1//EN" "http://www.w3.org/Graphics/SVG/1.1/DTD/svg11.dtd"><svg t="1538920195849" class="icon" style="" viewBox="0 0 1024 1024" version="1.1" xmlns="http://www.w3.org/2000/svg" p-id="2605" xmlns:xlink="http://www.w3.org/1999/xlink" width="200" height="200"><defs><style type="text/css"></style></defs><path d="M887.329046 171.029564C887.329046 197.407383 881.179648 224.635697 868.880668 252.715325 856.581691 280.794953 838.557592 307.172362 814.807841 331.848404 791.058087 356.524413 761.795439 378.434723 727.019012 397.579917 692.242589 416.72511 652.37753 431.402864 607.42264 441.613623 606.574434 442.464528 605.302143 443.315433 603.605735 444.166304 600.21291 445.868114 598.516525 447.995308 598.516525 450.548024 598.516525 453.100705 601.061103 454.802481 606.150336 455.653386 637.533938 463.311463 665.100205 474.798409 688.849956 490.114563 709.206889 503.728908 727.86713 522.873828 744.831238 547.549871 761.795347 572.225879 770.277275 605.410392 770.277275 647.104365 770.277275 664.973235 767.3086 686.670802 761.371164 712.197715 755.433724 737.724628 745.679509 764.314781 732.108222 791.968956 718.536934 819.623132 700.724886 847.276899 678.671544 874.931075 656.618199 902.58525 629.900127 927.473627 598.516525 949.596954 567.132923 971.720281 530.236539 989.588878 487.826264 1003.203222 445.415993 1016.817601 397.069005 1023.624671 342.783855 1023.624671 268.141772 1023.624671 215.129724 1012.563178 183.746122 990.439817 152.36252 968.31649 136.670954 936.833753 136.670954 895.990685 136.670954 869.612833 142.184207 844.9372 153.210879 821.962968 164.237549 798.988701 176.112246 778.567492 188.835331 760.698622 204.103028 739.4262 221.066884 720.281279 239.727404 703.263349 262.628952 683.692703 284.045818 668.589496 303.978646 657.953251 323.911475 647.31704 341.087378 639.446356 355.506872 634.340959 372.47098 628.384692 387.738451 624.98114 401.309739 624.130269 413.184614 624.130269 421.030397 625.619302 424.847323 628.597435 428.664249 631.575569 430.572681 635.19183 430.572681 639.446321 430.572681 642.849942 428.876296 647.104365 425.483475 652.209727 423.787063 654.762442 422.090678 656.889636 420.394265 658.591447 396.644515 679.863869 377.348129 700.072403 362.504534 719.217597 347.660935 738.36279 335.998288 756.018644 327.51623 772.185704 319.034176 788.352763 313.520923 803.243227 310.976308 816.857606 308.43169 830.47195 307.159403 842.384348 307.159403 852.595107 307.159403 882.376511 313.308801 901.734141 325.607778 910.668576 337.906758 919.603011 353.810371 924.070143 373.319098 924.070143 405.550906 924.070143 435.237652 913.434102 462.380227 892.161646 489.522802 870.889224 513.060151 844.937234 532.992979 814.304924 552.925808 783.672615 568.617377 750.913521 580.068151 716.02672 591.518925 681.139919 597.244225 650.508087 597.244225 624.130269 597.244225 598.603322 592.155066 577.331207 581.976603 560.313242 571.798137 543.295311 558.863196 529.893881 543.171395 520.10854 527.479593 510.323235 509.455498 503.51613 489.098568 499.687092 468.741635 495.858053 448.385009 493.943568 428.02808 493.943568 418.697819 493.943568 410.00384 494.156311 401.945891 494.58173 393.887938 495.007182 386.890348 495.645344 380.952908 496.496249 374.167266 497.347154 367.805821 498.198025 361.868382 499.04893 360.171969 499.899835 358.05149 500.325288 355.506872 500.325288 352.114051 500.325288 350.417666 498.198059 350.417666 493.943568 354.658693 476.925637 359.5358 462.673301 365.049135 451.186185 370.562473 439.699069 375.863675 430.126609 380.952908 422.468532 386.890348 413.108678 393.251793 405.876156 400.037438 400.77076 401.733847 399.068949 403.218185 398.005369 404.490492 397.579917 405.762803 397.154464 407.247141 396.516302 408.943549 395.665397 410.639962 394.814492 412.336347 394.38904 414.032759 394.38904 419.121989 395.239945 424.211147 395.665397 429.30038 395.665397L443.295701 395.665397C499.27726 395.665397 544.655575 386.51839 579.431999 368.224101 614.208422 349.929779 641.350591 328.870373 660.859318 305.04527 680.368041 281.220133 693.727077 257.182628 700.936824 232.932038 708.14657 208.681482 711.751391 191.025595 711.751391 179.963931 711.751391 161.24419 707.722476 146.779145 699.664523 136.568387 691.60657 126.357594 682.4885 118.699653 672.310034 113.594257 662.131567 108.488861 652.165302 105.510761 642.41094 104.65989 632.656578 103.808985 626.50718 103.383533 623.962562 103.383533 590.034345 103.383533 560.559645 111.041508 535.537584 126.357662 510.515522 141.673817 489.522751 158.691509 472.558643 177.41125 453.049916 199.534611 436.934256 224.210244 424.211171 251.438967 419.970144 262.500631 413.608698 269.094992 405.126644 271.222254 396.64459 273.349483 390.707239 274.413097 387.314418 274.413097 376.287749 274.413097 369.502206 272.498612 366.957588 268.669573 364.412973 264.840534 363.140682 261.649726 363.140682 259.097011 363.140682 233.570097 366.95755 208.256269 374.591402 183.154774 382.22525 158.053313 391.343323 135.292132 401.945891 114.870615 412.548459 94.449064 423.999062 77.005919 436.298039 62.540669 448.597019 48.075386 459.835572 39.141121 470.014038 35.737535 484.433532 28.930329 500.549195 22.97413 518.36151 17.868768 533.629206 13.614276 552.0774 9.572563 573.706641 5.743524 595.335881 1.914485 619.721422 0 646.863997 0 688.426066 0 724.262207 4.679876 754.373502 14.039729 784.484796 23.399616 809.506483 35.737433 829.439311 51.053588 849.372139 66.369742 864.003465 84.451048 873.333725 105.298052 882.663986 126.145056 887.329046 148.055332 887.329046 171.029564L887.329046 171.029564Z" p-id="2606" fill="#2c2c2c"></path></svg>